<svg width="87" height="45" viewBox="0 0 87 45" fill="none" xmlns="http://www.w3.org/2000/svg">
<g clip-path="url(#clip0_760_1346)">
<path d="M41.6641 2.23608C41.6641 1.13151 40.7686 0.236084 39.6641 0.236084H38.7443C37.6397 0.236084 36.7443 1.13151 36.7443 2.23608V9.68071C36.7443 9.73177 36.7029 9.77317 36.6518 9.77317V9.77317C36.6211 9.77317 36.5924 9.75791 36.5752 9.73246L30.7558 1.11664C30.3839 0.566045 29.7628 0.236084 29.0984 0.236084H27.9845C26.8799 0.236084 25.9845 1.13151 25.9845 2.23608V16.4562C25.9845 17.5607 26.8799 18.4562 27.9845 18.4562H28.9043C30.0088 18.4562 30.9043 17.5607 30.9043 16.4562V8.95302C30.9043 8.91463 30.9354 8.88351 30.9738 8.88351V8.88351C30.9967 8.88351 31.0182 8.89484 31.0312 8.91378L36.9627 17.5853C37.3355 18.1303 37.9532 18.4562 38.6134 18.4562H39.6641C40.7686 18.4562 41.6641 17.5607 41.6641 16.4562V2.23608Z" fill="#1D3557"/>
<path d="M50.5745 18.7053C53.2691 18.7053 55.2764 17.7779 56.3701 16.2091C57.0747 15.1986 56.1113 14.0435 54.8794 14.0435H54.1669C53.3273 14.0435 52.59 14.6761 51.826 15.0243C51.4963 15.1745 51.1061 15.2534 50.6807 15.2534C49.2296 15.2534 48.3801 14.2926 48.3801 12.9759V12.9759C48.3801 12.858 48.4757 12.7624 48.5936 12.7624H56.0899C56.7188 12.7624 57.2286 12.2526 57.2286 11.6236V11.6236C57.2286 7.27324 54.5741 4.61318 50.4684 4.61318C46.2565 4.61318 43.5665 7.42448 43.5665 11.6592C43.5665 16.0808 46.2211 18.7053 50.5745 18.7053ZM50.4255 10.0579C49.3033 10.0579 48.4046 8.93857 49.3755 8.37587C49.7203 8.17602 50.1322 8.06503 50.5745 8.06503C51.0153 8.06503 51.4174 8.17321 51.752 8.36735C52.7227 8.93053 51.8101 10.0579 50.6879 10.0579H50.4255Z" fill="#1D3557"/>
<path d="M59.2218 16.4562C59.2218 17.5607 60.1172 18.4562 61.2218 18.4562H62.1061C63.2107 18.4562 64.1061 17.5607 64.1061 16.4562V11.339C64.1061 9.77317 65.1768 8.74117 66.6191 8.74117V8.74117C67.5138 8.74117 68.4242 8.05624 68.4242 7.16156V6.05711C68.4242 5.31139 67.9311 4.61318 67.1854 4.61318V4.61318C65.7495 4.61318 64.6255 5.44936 64.122 7.32857C64.1126 7.36372 64.0807 7.3889 64.0443 7.3889V7.3889C64.0003 7.3889 63.9646 7.35318 63.9646 7.30913V6.09C63.9646 5.37264 63.383 4.79111 62.6657 4.79111H61.2218C60.1172 4.79111 59.2218 5.68654 59.2218 6.79111V16.4562Z" fill="#1D3557"/>
<path d="M74.1669 18.6341C76.06 18.6341 77.3628 17.6216 77.9377 16.2537C77.9477 16.2299 77.9709 16.2143 77.9968 16.2143V16.2143C78.0318 16.2143 78.0603 16.2427 78.0603 16.2778V17.3352C78.0603 17.9543 78.5621 18.4562 79.1812 18.4562H80.9092C82.0138 18.4562 82.9092 17.5607 82.9092 16.4562V2.23608C82.9092 1.13151 82.0138 0.236084 80.9092 0.236084H80.0249C78.9203 0.236084 78.0249 1.13151 78.0249 2.23608V7.13345C78.0249 7.15661 78.0061 7.17538 77.9829 7.17538V7.17538C77.9656 7.17538 77.95 7.16468 77.9437 7.14849C77.4067 5.77239 76.1359 4.61318 74.1315 4.61318C71.4416 4.61318 68.8224 6.67717 68.8224 11.6236C68.8224 16.3566 71.2646 18.6341 74.1669 18.6341ZM75.972 14.862C74.627 14.862 73.8484 13.6521 73.8484 11.6236C73.8484 9.59524 74.627 8.38531 75.972 8.38531C77.317 8.38531 78.131 9.59524 78.131 11.6236C78.131 13.6165 77.317 14.862 75.972 14.862Z" fill="#1D3557"/>
<path d="M29.3975 39.035C34.919 39.035 38.423 35.6188 38.423 29.925C38.423 24.2312 34.919 20.8149 29.3267 20.8149H24.4249C23.3203 20.8149 22.4249 21.7103 22.4249 22.8149V37.035C22.4249 38.1396 23.3203 39.035 24.4249 39.035H29.3975ZM29.2205 34.8359C28.1845 34.8359 27.3446 33.996 27.3446 32.96V26.7484C27.3446 25.7906 28.1211 25.0141 29.079 25.0141V25.0141C31.9105 25.0141 33.4678 26.1173 33.4678 29.925C33.4678 33.7327 31.9105 34.8359 29.2205 34.8359V34.8359Z" fill="#E63946"/>
<path d="M40.7701 37.035C40.7701 38.1396 41.6655 39.035 42.7701 39.035H43.6544C44.759 39.035 45.6544 38.1396 45.6544 37.035V27.3699C45.6544 26.2654 44.759 25.3699 43.6544 25.3699H42.7701C41.6655 25.3699 40.7701 26.2654 40.7701 27.3699V37.035ZM43.2122 23.9465C44.5395 23.9465 45.619 22.9412 45.619 21.7046C45.619 20.468 44.5395 19.4626 43.2122 19.4626C41.885 19.4626 40.8055 20.468 40.8055 21.7046C40.8055 22.9412 41.885 23.9465 43.2122 23.9465Z" fill="#E63946"/>
<path d="M51.9303 39.2485C53.6863 39.2485 55.0155 38.6529 55.8399 37.1485C55.8517 37.1271 55.8743 37.1134 55.8987 37.1134V37.1134C55.9354 37.1134 55.9652 37.1431 55.9652 37.1798V38.0742C55.9652 38.6048 56.3954 39.035 56.926 39.035H58.531C59.6356 39.035 60.531 38.1396 60.531 37.035V29.6759C60.531 27.1493 58.1508 25.192 54.2663 25.192C51.3803 25.192 49.5353 26.2701 48.6488 27.7878C48.0649 28.7874 49.0189 29.8182 50.1764 29.8182H50.7857C51.7861 29.8182 52.6636 28.8455 53.6402 28.6288C53.8096 28.5913 53.9954 28.5727 54.1955 28.5727C55.0449 28.5727 55.6466 28.9641 55.6466 29.6759V29.7115C55.6466 30.5032 54.7795 30.7523 52.4966 30.9214C49.6916 31.126 47.506 32.2648 47.506 35.2629C47.506 37.9852 49.3288 39.2485 51.9303 39.2485ZM53.523 36.1525C52.6912 36.1525 52.1072 35.7433 52.1072 34.9782C52.1072 34.2754 52.6027 33.7327 53.7353 33.5548C54.0413 33.5058 54.3281 33.4514 54.5948 33.3904C55.123 33.2695 55.682 33.6534 55.682 34.1953V34.1953C55.682 35.4408 54.629 36.1525 53.523 36.1525Z" fill="#E63946"/>
<path d="M62.8648 37.035C62.8648 38.1396 63.7602 39.035 64.8648 39.035H65.7492C66.8538 39.035 67.7492 38.1396 67.7492 37.035V31.9178C67.7492 30.352 68.8199 29.32 70.2622 29.32V29.32C71.1569 29.32 72.0673 28.6351 72.0673 27.7404V26.6359C72.0673 25.8902 71.5742 25.192 70.8285 25.192V25.192C69.3926 25.192 68.2686 26.0282 67.765 27.9074C67.7556 27.9426 67.7238 27.9677 67.6874 27.9677V27.9677C67.6433 27.9677 67.6076 27.932 67.6076 27.888V26.6688C67.6076 25.9515 67.0261 25.3699 66.3087 25.3699H64.8648C63.7602 25.3699 62.8648 26.2654 62.8648 27.3699V37.035Z" fill="#E63946"/>
<path d="M77.0556 44.1594C80.4711 44.1594 82.0727 42.4335 82.8249 40.1738L86.8981 28.0048C87.3317 26.7093 86.3677 25.3699 85.0015 25.3699H84.2315C83.3036 25.3699 82.4975 26.0082 82.2848 26.9114L80.4343 34.7671C80.4248 34.8074 80.3888 34.8359 80.3474 34.8359V34.8359C80.3059 34.8359 80.2698 34.8072 80.2605 34.7668L78.441 26.9183C78.2308 26.0118 77.4232 25.3699 76.4927 25.3699H75.7641C74.3979 25.3699 73.4338 26.7094 73.8676 28.005L77.6775 39.3832C77.7329 39.5486 77.7257 39.7286 77.6573 39.8891V39.8891C77.5387 40.1631 77.3387 40.3343 77.0747 40.4209C76.0708 40.7504 74.9226 41.0362 74.6148 42.047V42.047C74.334 42.9694 74.8153 43.9573 75.7716 44.0795C76.1795 44.1317 76.6121 44.1594 77.0556 44.1594Z" fill="#E63946"/>
<path d="M10.3987 11.7625C10.7218 10.7012 11.8416 10.103 12.8972 10.4278L21.9998 13.2287C23.0503 13.5519 23.6404 14.6676 23.3198 15.724L23.1413 16.3122C22.8189 17.3744 21.6985 17.9735 20.6423 17.6485L15.5379 16.0779C14.7103 15.8232 13.8326 16.2934 13.5812 17.126V17.126C13.3299 17.9582 12.4528 18.4284 11.6255 18.1745L10.6217 17.8664C9.56991 17.5435 8.97904 16.4264 9.30088 15.3691L10.3987 11.7625ZM8.30502 18.6516L12.7054 20.013L14.9286 20.6931C15.9825 21.0156 16.5743 22.1352 16.2503 23.1939L16.0705 23.7816C15.7462 24.8413 14.6273 25.4379 13.5728 25.1134L8.88961 23.6724C7.834 23.3476 6.71415 23.9458 6.39109 25.0072L4.90104 29.9023V29.9023C4.60489 30.8631 3.5896 31.4032 2.63292 31.1088L1.87067 30.8743C0.819574 30.5509 0.229436 29.4342 0.551119 28.3774L3.33652 19.2267C3.65955 18.1655 4.77922 17.5673 5.83477 17.8919L8.30502 18.6516Z" fill="#1D3557"/>
</g>
<defs>
<clipPath id="clip0_760_1346">
<rect width="87" height="45" fill="white"/>
</clipPath>
</defs>
</svg>
